<?xml version="1.0" encoding="UTF-8"?>
<svg width="500" height="500" viewBox="0 0 500 500" version="1.1" xmlns="http://www.w3.org/2000/svg">
  <g transform="translate(0.000000,500.000000) scale(0.100000,-0.100000)"
     fill="currentColor" stroke="none">
    <path d="M2237 4425 c-403 -55 -779 -237 -1075 -519 -324 -310 -524 -697 -588
    -1136 -25 -172 -15 -480 20 -648 49 -232 122 -420 235 -611 266 -447 698 -770
    1201 -896 176 -44 315 -58 530 -52 310 9 531 65 805 202 803 403 1222 1281
    1029 2154 -180 809 -846 1411 -1674 1511 -114 14 -363 11 -483 -5z m443 -135
    c289 -30 571 -132 815 -294 414 -276 691 -703 775 -1193 93 -540 -59 -1075
    -424 -1495 -373 -428 -968 -659 -1534 -597 -428 47 -785 219 -1092 529 -353
    355 -534 820 -517 1330 20 575 315 1103 797 1424 257 171 530 266 860 299 76
    8 230 6 320 -3z"/>
    <path d="M2350 4184 c-231 -28 -415 -80 -595 -170 -176 -87 -297 -175 -445
    -324 -147 -146 -236 -268 -320 -435 -131 -264 -189 -533 -177 -826 10 -244 66
    -459 177 -684 83 -166 172 -288 325 -441 246 -247 528 -396 877 -466 148 -29
    451 -32 595 -5 711 133 1245 669 1379 1382 28 150 26 440 -4 593 -47 234 -133
    442 -263 638 -101 151 -304 354 -453 453 -200 133 -430 226 -654 267 -84 15
    -370 27 -442 18z m-338 -371 c74 -78 107 -134 115 -201 11 -100 -36 -183 -150
    -263 -39 -27 -72 -47 -75 -44 -3 2 10 21 28 42 18 20 45 62 59 93 23 48 26 68
    26 160 0 112 4 99 -83 273 -2 4 0 7 6 7 5 0 38 -30 74 -67z m-156 -336 c-75
    -111 -113 -242 -102 -348 6 -66 38 -156 67 -193 41 -52 -37 -18 -109 47 -54
    50 -92 126 -92 184 0 98 78 222 208 327 37 30 68 53 70 52 1 -2 -18 -33 -42
    -69z m804 -43 c69 -9 129 -21 134 -25 5 -5 4 -26 -2 -51 -6 -24 -13 -57 -16
    -74 l-5 -31 102 -27 c220 -57 387 -171 421 -286 24 -82 23 -90 -22 -90 -34 0
    -1345 182 -1414 196 -33 7 -35 22 -9 73 59 114 194 169 441 178 90 3 158 10
    162 16 3 6 9 42 13 80 l7 69 32 -5 c17 -3 87 -13 156 -23z m1270 -389 c0 -138
    -60 -254 -154 -299 -37 -17 -171 -23 -180 -7 -7 11 35 69 121 169 54 63 58 69
    19 32 -26 -25 -71 -76 -99 -114 l-51 -69 -8 29 c-4 16 -10 58 -12 94 -3 39 -2
    51 2 30 l7 -34 13 47 c28 109 168 200 315 206 l27 1 0 -85z m-2434 -246 c94
    -24 137 -115 114 -247 -15 -90 -47 -150 -99 -187 -38 -27 -50 -30 -139 -33
    -53 -1 -103 1 -110 6 -11 7 -9 48 13 228 15 120 30 222 33 226 18 17 130 21
    188 7z m1682 -96 c-3 -32 -44 -46 -54 -19 -8 21 13 46 38 46 15 0 19 -6 16
    -27z m-1317 -114 c18 -18 20 -28 14 -68 -4 -25 -9 -77 -11 -116 -2 -60 -6 -70
    -22 -73 -13 -2 -21 4 -25 18 l-6 22 -29 -22 c-39 -29 -88 -24 -115 11 -42 57
    18 132 117 145 40 6 46 10 46 30 0 30 -36 40 -84 24 -37 -12 -56 -7 -56 14 0
    20 40 35 98 35 40 1 57 -4 73 -20z m149 5 c0 -14 2 -14 22 0 32 22 91 20 112
    -3 18 -20 18 -20 39 0 28 26 90 26 117 -1 23 -23 24 -47 7 -170 -11 -77 -14
    -85 -35 -88 -24 -4 -24 -3 -16 65 5 37 9 91 9 118 0 45 -2 50 -23 53 -15 2
    -33 -5 -48 -19 -22 -21 -31 -50 -52 -169 -6 -36 -12 -46 -30 -48 -22 -3 -22
    -2 -15 55 5 32 8 85 8 118 0 60 0 60 -29 60 -50 0 -66 -34 -91 -197 -5 -29
    -11 -38 -25 -38 -16 0 -20 7 -20 33 0 35 17 184 26 225 5 25 44 31 44 6z m561
    -5 c18 -18 20 -28 14 -68 -4 -25 -9 -77 -11 -116 -2 -60 -6 -70 -22 -73 -13
    -2 -21 4 -25 18 l-6 22 -29 -22 c-39 -29 -88 -24 -115 11 -42 57 18 132 117
    145 40 6 46 10 46 30 0 30 -36 40 -84 24 -37 -12 -56 -7 -56 14 0 20 40 35 98
    35 40 1 57 -4 73 -20z m219 6 c18 -21 5 -30 -43 -30 -35 0 -42 -3 -45 -22 -2
    -15 9 -31 37 -53 53 -43 67 -78 47 -118 -18 -34 -33 -42 -86 -42 -45 0 -92 32
    -73 50 8 9 20 9 47 -1 38 -14 65 -6 74 19 2 7 -19 34 -47 61 -57 55 -64 82
    -30 125 16 21 29 26 64 26 26 0 47 -6 55 -15z m241 5 c21 -12 25 -35 8 -46 -6
    -3 -16 -1 -22 5 -23 23 -74 13 -101 -20 -32 -37 -37 -120 -9 -151 20 -22 61
    -23 92 -2 19 14 25 14 32 3 14 -22 11 -27 -23 -45 -39 -20 -110 -14 -138 11
    -61 55 -37 199 38 240 32 17 95 19 123 5z m129 -13 c0 -24 -16 -161 -26 -224
    -4 -24 -10 -33 -24 -33 -16 0 -20 7 -20 33 0 35 17 184 26 225 6 31 44 30 44
    -1z m130 8 c0 -14 3 -14 24 0 38 25 104 16 129 -16 18 -25 19 -33 8 -115 -17
    -130 -19 -134 -42 -134 -21 0 -21 3 -14 83 12 122 12 138 -6 150 -9 5 -27 7
    -41 4 -45 -12 -59 -47 -83 -199 -5 -29 -11 -38 -25 -38 -16 0 -20 7 -20 33 0
    35 17 184 26 225 5 25 44 32 44 7z m420 2 c51 -40 65 -121 32 -187 -23 -46
    -75 -80 -123 -80 -114 0 -149 165 -53 250 28 24 43 30 82 30 26 0 54 -6 62
    -13z m-1710 -390 c33 -17 35 -66 4 -82 l-22 -11 20 -27 c11 -15 26 -27 34 -27
    19 0 18 -16 -2 -24 -16 -6 -74 45 -74 65 0 5 -4 9 -10 9 -5 0 -10 -16 -10 -35
    0 -19 -4 -35 -10 -35 -6 0 -10 37 -10 90 l0 90 28 0 c15 0 38 -6 52 -13z
    m-642 -12 c80 -24 139 -85 144 -147 0 -13 4 -3 8 22 7 45 7 44 8 -17 1 -35 -2
    -63 -7 -63 -5 0 -12 -11 -15 -24 -7 -30 -49 -41 -103 -27 -81 22 -132 103
    -133 209 0 58 1 62 23 62 13 0 46 -7 75 -15z m972 -20 c0 -8 9 -15 20 -15 11
    0 20 -4 20 -10 0 -5 -9 -10 -19 -10 -12 0 -21 -9 -25 -24 -8 -33 2 -56 25 -56
    23 0 25 -16 3 -24 -32 -12 -54 12 -54 59 0 25 -5 46 -12 49 -10 5 -10 7 0 12
    6 3 12 12 12 20 0 8 7 14 15 14 8 0 15 -7 15 -15z m730 0 c0 -8 9 -15 20 -15
    11 0 20 -4 20 -10 0 -5 -9 -10 -19 -10 -12 0 -21 -9 -25 -24 -8 -33 2 -56 25
    -56 23 0 25 -16 3 -24 -32 -12 -54 12 -54 59 0 25 -5 46 -12 49 -10 5 -10 7 0
    12 6 3 12 12 12 20 0 8 7 14 15 14 8 0 15 -7 15 -15z m-926 -15 c20 -7 26 -16
    26 -40 0 -28 -2 -30 -41 -30 -28 0 -39 -4 -36 -12 2 -8 19 -13 41 -12 20 1 36
    -2 36 -7 0 -15 -39 -30 -65 -23 -49 12 -60 70 -20 109 28 29 26 28 59 15z
    m122 -4 c15 -12 17 -17 7 -27 -10 -10 -13 -10 -13 -1 0 7 -9 12 -20 12 -30 0
    -24 -20 9 -31 38 -13 45 -35 21 -59 -26 -26 -45 -25 -72 2 -17 17 -18 23 -8
    26 8 3 16 0 18 -6 4 -14 52 -16 52 -2 0 5 -11 12 -25 16 -61 15 -58 70 6 83 3
    0 14 -5 25 -13z m220 4 c11 0 14 -15 14 -61 0 -44 -3 -59 -12 -56 -7 2 -21 0
    -31 -5 -13 -7 -26 -5 -43 7 -52 34 -14 138 44 119 8 -2 20 -4 28 -4z m254 -5
    c0 -8 -6 -15 -14 -15 -14 0 -36 -49 -36 -81 0 -11 -4 -19 -10 -19 -6 0 -10 27
    -10 61 0 47 3 60 13 56 8 -3 20 -1 28 4 20 13 29 11 29 -6z m111 5 c17 0 19
    -8 19 -60 0 -56 -2 -60 -22 -59 -13 1 -31 -2 -40 -5 -22 -10 -58 27 -58 59 0
    32 45 79 66 71 9 -3 24 -6 35 -6z m141 -7 c24 -21 26 -113 3 -113 -11 0 -15
    12 -15 44 0 25 -5 48 -10 51 -18 11 -40 -16 -46 -56 -10 -60 -24 -46 -24 22 0
    47 3 60 13 56 8 -3 20 -1 28 4 20 13 30 11 51 -8z m-432 -43 c0 -37 4 -50 15
    -50 19 0 35 31 35 69 0 21 5 31 15 31 12 0 15 -13 15 -60 0 -56 -2 -60 -22
    -59 -13 1 -30 -1 -39 -5 -28 -12 -49 20 -49 75 0 37 4 49 15 49 11 0 15 -12
    15 -50z m828 -252 l3 -48 -40 0 -41 0 0 -72 0 -72 38 37 38 37 122 0 122 0 0
    -85 0 -85 -124 0 -125 0 -34 -42 -35 -43 -4 -135 c-3 -122 -5 -138 -26 -168
    -47 -65 -16 -62 -723 -62 -634 0 -642 0 -676 21 -55 34 -66 67 -72 221 l-6
    137 -34 35 -35 36 -123 0 -123 0 0 85 0 85 126 0 127 0 33 -37 33 -38 1 73 0
    72 -40 0 -40 0 0 43 c0 24 3 47 7 50 3 4 376 6 827 5 l821 -3 3 -47z"/>
    <path d="M2506 3368 c-3 -13 -6 -34 -6 -48 0 -25 3 -26 113 -42 61 -9 113 -15
    114 -14 2 2 6 23 9 48 l6 45 -105 17 c-131 20 -124 20 -131 -6z"/>
    <path d="M2237 3239 c-93 -10 -192 -42 -252 -80 -57 -36 -53 -41 48 -53 57 -7
    59 -7 99 29 51 47 128 82 215 100 l68 13 -55 0 c-30 0 -86 -4 -123 -9z"/>
    <path d="M1350 2758 c-1 -2 -11 -86 -24 -188 -15 -128 -19 -187 -12 -192 15
    -11 75 -10 116 2 41 11 94 61 110 105 19 49 29 141 20 182 -5 22 -22 49 -40
    66 -27 24 -38 27 -100 27 -39 0 -70 -1 -70 -2z"/>
    <path d="M1763 2463 c-34 -7 -65 -51 -52 -74 19 -37 66 -14 98 48 18 35 14 38
    -46 26z"/>
    <path d="M2473 2463 c-34 -7 -65 -51 -52 -74 19 -37 66 -14 98 48 18 35 14 38
    -46 26z"/>
    <path d="M3603 2555 c-50 -35 -55 -155 -8 -177 56 -25 115 29 115 107 0 75
    -52 108 -107 70z"/>
    <path d="M1940 2166 c0 -22 4 -26 31 -26 26 0 30 3 27 23 -2 16 -11 23 -30 25
    -24 3 -28 0 -28 -22z"/>
    <path d="M1405 2060 c10 -11 20 -20 23 -20 3 0 -3 9 -13 20 -10 11 -20 20 -23
    20 -3 0 3 -9 13 -20z"/>
    <path d="M1440 2016 c0 -2 8 -10 18 -17 15 -13 16 -12 3 4 -13 16 -21 21 -21
    13z"/>
    <path d="M2087 2134 c-15 -15 -6 -24 24 -24 20 0 29 4 27 13 -5 14 -40 21 -51
    11z"/>
    <path d="M2410 2120 c-15 -27 -3 -60 20 -60 24 0 43 34 35 60 -8 26 -41 26
    -55 0z"/>
    <path d="M2774 2116 c-8 -32 1 -56 19 -56 41 0 49 73 10 78 -17 3 -24 -3 -29
    -22z"/>
    <path d="M1900 1475 l0 -255 80 0 80 0 0 255 0 255 -80 0 -80 0 0 -255z"/>
  </g>
</svg>
